# xmcd CD database file
#
# Track frame offsets:
#	151
#	14021
#	31292
#	45497
#	63404
#	79114
#	93945
#	107536
#	121374
#	133353
#	147799
#	159589
#	173180
#	191610
#	207257
#	223780
#	236381
#	250101
#	263650
#	276197
#	291667
#
# Disc length: 4097 seconds
#
# Revision: 2
# Processed by: cddbd v1.5PL3 Copyright (c) Steve Scherf et al.
# Submitted via: CDex 1.50Beta7
#
DISCID=370fff15
DTITLE=Scooter Lee - More of the Best
DYEAR=1900
DGENRE=
TTITLE0=Roll Back The Rug
TTITLE1=Pride and Joy
TTITLE2=Traces
TTITLE3=Last Time Uh-Huh
TTITLE4=Little Jalapeno
TTITLE5=Wonderful One
TTITLE6=Wanna Make You Mine
TTITLE7=Splish Splash
TTITLE8=Moving On Up
TTITLE9=If You Love Me
TTITLE10=If You Don't Straighten Up
TTITLE11=Twistin' The Night Away
TTITLE12=Let Me Call You Sweetheart
TTITLE13=On Your Own
TTITLE14=I Love My Louisiana Man
TTITLE15=Well Oiled Lovin' Machine
TTITLE16=Barefootin'
TTITLE17=Rock and Roll Waltz
TTITLE18=Steppin' Out
TTITLE19=Wasn't That a Party
TTITLE20=Retro Rex
EXTD=
EXTT0=
EXTT1=
EXTT2=
EXTT3=
EXTT4=
EXTT5=
EXTT6=
EXTT7=
EXTT8=
EXTT9=
EXTT10=
EXTT11=
EXTT12=
EXTT13=
EXTT14=
EXTT15=
EXTT16=
EXTT17=
EXTT18=
EXTT19=
EXTT20=
PLAYORDER=
